<svg width="812" height="171" viewBox="0 0 812 171" fill="none" xmlns="http://www.w3.org/2000/svg">
<g clip-path="url(#clip0_2204_910)">
<rect x="3.35938" y="0.8125" width="808.922" height="169.467" fill="white"/>
<rect x="4.68359" y="4.5" width="803.098" height="161.28" fill="white" stroke="#1784AD" stroke-width="9"/>
<rect y="0.140625" width="203.168" height="170.139" fill="#1784AD"/>
<circle cx="84.9133" cy="71.2903" r="7.17115" fill="white"/>
<circle cx="42.3137" cy="49.6711" r="7.3" fill="white"/>
<circle cx="132.89" cy="60.2434" r="7.17115" fill="white"/>
<circle cx="189.991" cy="57.665" r="6.45404" fill="white"/>
<circle cx="84.7844" cy="124.347" r="7.3" fill="white"/>
<circle cx="13.2907" cy="85.029" r="6.57" fill="white"/>
<circle cx="101.259" cy="36.0072" r="5.31383" fill="white"/>
<circle cx="32.4896" cy="133.956" r="4.3744" fill="white"/>
<circle cx="158.542" cy="133.956" r="5.77065" fill="white"/>
<circle cx="188.296" cy="112.667" r="4.38" fill="white"/>
<circle cx="54.2925" cy="102.226" r="11.9644" fill="white"/>
<circle cx="132.891" cy="111.04" r="10.0749" fill="white"/>
<circle cx="132.891" cy="111.04" r="10.0749" fill="white"/>
<path d="M132.018 58.8066L100.397 35.2356" stroke="white" stroke-width="2.92"/>
<path d="M84.9141 71.291L100.398 35.2359" stroke="white" stroke-width="2.92"/>
<path d="M84.9141 71.291L42.3146 48.5683" stroke="white" stroke-width="2.92"/>
<path d="M50.5039 101.395L10.8073 85.5413" stroke="white" stroke-width="2.92"/>
<path d="M54.293 102.225L32.4899 133.955" stroke="white" stroke-width="2.92"/>
<path d="M54.293 102.225L85.7143 71.2894" stroke="white" stroke-width="2.92"/>
<path d="M133.576 60.2441L133.576 108.289" stroke="white" stroke-width="2.92"/>
<path d="M84.9141 124.547L54.294 102.226" stroke="white" stroke-width="2.92"/>
<path d="M158.543 135.563L132.89 111.038" stroke="white" stroke-width="2.92"/>
<path d="M188.271 112.496L164.025 78.4599" stroke="white" stroke-width="2.92"/>
<path d="M166.061 80.2051L132.891 60.2441" stroke="white" stroke-width="2.92"/>
<path d="M164.703 79.1836L188.271 58.8049" stroke="white" stroke-width="2.92"/>
<path d="M84.9141 124.547L132.892 111.038" stroke="white" stroke-width="2.92"/>
<path d="M131.947 108.18L87.3434 70.2265" stroke="white" stroke-width="2.85337"/>
<path d="M265.047 43.3926C271.667 43.3926 277.56 44.9668 282.727 48.1152C287.893 51.2637 291.647 55.4212 293.988 60.5879C294.271 61.153 294.412 61.7585 294.412 62.4043C294.412 63.5749 293.988 64.584 293.141 65.4316C292.293 66.2793 291.284 66.7031 290.113 66.7031C289.346 66.7031 288.559 66.4609 287.752 65.9766C286.985 65.4518 286.44 64.8262 286.117 64.0996C284.462 60.3861 281.738 57.4596 277.943 55.3203C274.189 53.1406 269.891 52.0508 265.047 52.0508C262.464 52.0508 259.779 52.3737 256.994 53.0195C254.249 53.625 251.686 54.5534 249.305 55.8047C246.964 57.056 245.066 58.6504 243.613 60.5879C242.16 62.485 241.434 64.7051 241.434 67.248C241.434 70.1947 242.402 72.5964 244.34 74.4531C246.277 76.2695 248.74 77.7025 251.727 78.752C254.754 79.7611 257.902 80.5482 261.172 81.1133C264.482 81.638 267.489 82.082 270.193 82.4453C273.423 82.8893 276.632 83.5755 279.82 84.5039C283.049 85.3919 285.976 86.6634 288.6 88.3184C291.223 89.9329 293.322 92.0319 294.896 94.6152C296.511 97.1986 297.318 100.367 297.318 104.121C297.318 108.238 296.329 111.831 294.352 114.898C292.374 117.926 289.77 120.449 286.541 122.467C283.352 124.445 279.861 125.938 276.066 126.947C272.312 127.916 268.639 128.4 265.047 128.4C257.579 128.4 250.859 126.705 244.885 123.314C238.911 119.924 234.652 115.302 232.109 109.449C231.867 108.803 231.746 108.218 231.746 107.693C231.746 106.523 232.17 105.514 233.018 104.666C233.865 103.818 234.874 103.395 236.045 103.395C236.852 103.395 237.639 103.657 238.406 104.182C239.214 104.706 239.758 105.332 240.041 106.059C241.938 110.378 245.107 113.768 249.547 116.23C254.027 118.693 259.194 119.924 265.047 119.924C267.63 119.924 270.294 119.621 273.039 119.016C275.824 118.37 278.408 117.421 280.789 116.17C283.171 114.878 285.088 113.243 286.541 111.266C288.035 109.247 288.781 106.866 288.781 104.121C288.781 100.892 287.732 98.4095 285.633 96.6738C283.574 94.8978 281.031 93.6061 278.004 92.7988C274.977 91.9512 271.99 91.3457 269.043 90.9824C265.087 90.4173 260.99 89.7109 256.752 88.8633C252.554 88.0156 248.639 86.7845 245.006 85.1699C241.373 83.5553 238.426 81.3151 236.166 78.4492C233.906 75.543 232.775 71.7891 232.775 67.1875C232.775 63.3125 233.744 59.9017 235.682 56.9551C237.619 53.9681 240.162 51.4857 243.311 49.5078C246.499 47.4896 249.991 45.9759 253.785 44.9668C257.579 43.9173 261.333 43.3926 265.047 43.3926ZM358.047 77.9043C359.379 75.765 361.014 73.6862 362.951 71.668C364.889 69.6497 367.189 67.9948 369.854 66.7031C372.518 65.4115 375.565 64.7656 378.996 64.7656C384.122 64.7656 388.199 65.9967 391.227 68.459C394.254 70.8809 396.434 74.2109 397.766 78.4492C399.138 82.6875 399.824 87.4909 399.824 92.8594L399.885 123.375C399.885 124.626 399.441 125.696 398.553 126.584C397.665 127.472 396.595 127.916 395.344 127.916C394.092 127.916 393.023 127.472 392.135 126.584C391.247 125.656 390.803 124.566 390.803 123.314L390.742 92.8594C390.742 89.5495 390.419 86.4616 389.773 83.5957C389.168 80.7298 388.018 78.4089 386.322 76.6328C384.627 74.8568 382.145 73.9688 378.875 73.9688C374.637 73.9688 371.165 74.877 368.461 76.6934C365.757 78.4694 363.779 80.8105 362.527 83.7168C361.276 86.5827 360.63 89.6302 360.59 92.8594L360.469 123.557C360.469 124.808 360.025 125.878 359.137 126.766C358.249 127.654 357.179 128.098 355.928 128.098C354.676 128.098 353.607 127.654 352.719 126.766C351.831 125.837 351.387 124.747 351.387 123.496L351.326 92.8594C351.326 89.4688 351.003 86.3405 350.357 83.4746C349.712 80.6087 348.501 78.3079 346.725 76.5723C344.989 74.8366 342.466 73.9688 339.156 73.9688C333.384 73.9688 328.924 75.7448 325.775 79.2969C322.667 82.8086 321.113 87.3294 321.113 92.8594L321.053 123.678C321.053 124.929 320.609 125.999 319.721 126.887C318.833 127.775 317.763 128.219 316.512 128.219C315.26 128.219 314.191 127.775 313.303 126.887C312.415 125.958 311.971 124.868 311.971 123.617L311.91 69.125C311.991 67.8737 312.455 66.8444 313.303 66.0371C314.15 65.1895 315.2 64.7656 316.451 64.7656C317.743 64.7656 318.772 65.1895 319.539 66.0371C320.346 66.8444 320.73 67.8939 320.689 69.1855L320.992 76.3301C322.001 74.5944 323.414 72.8385 325.23 71.0625C327.087 69.2865 329.186 67.793 331.527 66.582C333.909 65.3711 336.391 64.7656 338.975 64.7656C343.859 64.7656 347.875 66.0977 351.023 68.7617C354.212 71.3854 356.553 74.4329 358.047 77.9043ZM442.873 64.9473C447.192 64.9473 451.067 66.1986 454.498 68.7012C457.969 71.2038 460.997 73.8477 463.58 76.6328L464.125 69.0039C464.125 67.8333 464.448 66.8444 465.094 66.0371C465.74 65.1895 466.648 64.7656 467.818 64.7656C468.989 64.7656 469.978 65.1895 470.785 66.0371C471.633 66.8444 472.057 67.8333 472.057 69.0039V123.738C472.057 124.909 471.633 125.918 470.785 126.766C469.978 127.573 468.989 127.977 467.818 127.977C466.648 127.977 465.639 127.573 464.791 126.766C463.984 125.918 463.58 124.909 463.58 123.738V116.836C460.916 119.742 457.747 122.366 454.074 124.707C450.441 127.048 446.607 128.219 442.57 128.219C438.413 128.219 434.558 127.371 431.006 125.676C427.454 123.94 424.346 121.599 421.682 118.652C419.018 115.706 416.939 112.355 415.445 108.602C413.992 104.807 413.266 100.831 413.266 96.6738C413.266 92.5566 413.992 88.6009 415.445 84.8066C416.939 80.972 419.018 77.5814 421.682 74.6348C424.386 71.6478 427.535 69.2865 431.127 67.5508C434.719 65.8151 438.635 64.9473 442.873 64.9473ZM463.883 96.3105C463.883 92.3952 462.934 88.7624 461.037 85.4121C459.18 82.0215 456.658 79.2767 453.469 77.1777C450.32 75.0788 446.809 74.0293 442.934 74.0293C439.018 74.0293 435.507 75.099 432.398 77.2383C429.29 79.3776 426.828 82.1829 425.012 85.6543C423.236 89.0853 422.348 92.7585 422.348 96.6738C422.348 100.549 423.236 104.202 425.012 107.633C426.788 111.064 429.189 113.849 432.217 115.988C435.285 118.087 438.736 119.137 442.57 119.137C446.445 119.137 449.997 118.067 453.227 115.928C456.456 113.748 459.039 110.923 460.977 107.451C462.914 103.939 463.883 100.226 463.883 96.3105ZM522.311 70.7598C522.311 71.8496 521.947 72.8587 521.221 73.7871C520.494 74.7155 519.707 75.1797 518.859 75.1797C517.608 75.1797 516.417 74.8971 515.287 74.332C514.197 73.7266 512.865 73.4238 511.291 73.4238C507.335 73.4238 504.227 74.2715 501.967 75.9668C499.706 77.6621 498.092 79.8418 497.123 82.5059C496.195 85.1296 495.73 87.9147 495.73 90.8613V123.859C495.73 125.111 495.347 126.18 494.58 127.068C493.854 127.997 492.723 128.461 491.189 128.461C489.696 128.461 488.566 127.997 487.799 127.068C487.032 126.18 486.648 125.111 486.648 123.859V70.1543C486.648 68.6608 487.133 67.4499 488.102 66.5215C489.111 65.5931 490.18 65.1289 491.311 65.1289C492.481 65.1289 493.43 65.5931 494.156 66.5215C494.923 67.4095 495.307 68.6204 495.307 70.1543L495.852 76.8145C496.417 74.9577 497.466 73.1211 499 71.3047C500.574 69.4883 502.411 67.9746 504.51 66.7637C506.649 65.5124 508.809 64.8867 510.988 64.8867C514.096 64.8867 516.76 65.3105 518.98 66.1582C521.201 66.9655 522.311 68.4993 522.311 70.7598ZM539.627 52.293C539.627 51.0417 540.071 49.972 540.959 49.084C541.847 48.196 542.917 47.752 544.168 47.752C545.419 47.752 546.489 48.196 547.377 49.084C548.265 49.972 548.709 51.0417 548.709 52.293L548.648 65.8555L560.455 65.916C561.626 65.916 562.615 66.3398 563.422 67.1875C564.27 67.9948 564.693 68.9837 564.693 70.1543C564.693 71.3249 564.27 72.334 563.422 73.1816C562.615 73.9889 561.626 74.3926 560.455 74.3926L548.648 74.332L548.588 112.113C548.588 114.253 548.911 115.988 549.557 117.32C550.202 118.612 551.514 119.258 553.492 119.258C555.268 119.258 556.721 118.935 557.852 118.289C559.022 117.603 560.354 117.26 561.848 117.26C563.099 117.26 564.169 117.704 565.057 118.592C565.945 119.48 566.389 120.549 566.389 121.801C566.389 123.496 565.662 124.828 564.209 125.797C562.756 126.766 561.04 127.432 559.062 127.795C557.125 128.199 555.389 128.4 553.855 128.4C549.092 128.4 545.5 126.887 543.078 123.859C540.697 120.792 539.506 116.836 539.506 111.992L539.566 74.3926H530.242C529.072 74.3926 528.062 73.9889 527.215 73.1816C526.408 72.334 526.004 71.3249 526.004 70.1543C526.004 68.9837 526.408 67.9948 527.215 67.1875C528.062 66.3398 529.072 65.916 530.242 65.916H539.566L539.627 52.293ZM580.98 43.2109C582.474 43.2109 583.645 43.7155 584.492 44.7246C585.38 45.6934 585.824 46.7227 585.824 47.8125V124.707C585.824 125.757 585.34 126.665 584.371 127.432C583.443 128.199 582.535 128.582 581.646 128.582C580.274 128.582 579.104 128.158 578.135 127.311C577.206 126.463 576.742 125.373 576.742 124.041V47.9336C576.742 46.763 577.166 45.6934 578.014 44.7246C578.861 43.7155 579.85 43.2109 580.98 43.2109ZM600.658 64.8867C601.506 64.8867 602.313 65.1491 603.08 65.6738C603.887 66.1986 604.452 66.8242 604.775 67.5508L626.875 115.322L645.766 67.8535C646.089 67.0462 646.654 66.36 647.461 65.7949C648.268 65.2298 649.116 64.9473 650.004 64.9473C651.578 64.9473 652.809 65.6133 653.697 66.9453C654.626 68.237 654.787 69.6699 654.182 71.2441L627.48 138.209C626.31 141.115 624.736 144.082 622.758 147.109C620.78 150.137 618.318 152.68 615.371 154.738C612.424 156.837 608.913 157.887 604.836 157.887C603.585 157.887 602.515 157.443 601.627 156.555C600.739 155.667 600.295 154.597 600.295 153.346C600.295 152.175 600.719 151.126 601.566 150.197C602.414 149.309 603.423 148.845 604.594 148.805C607.379 148.603 609.7 147.775 611.557 146.322C613.413 144.91 614.967 143.093 616.219 140.873C617.51 138.693 618.6 136.352 619.488 133.85C620.417 131.387 621.325 129.046 622.213 126.826L596.541 71.4258C596.258 70.7799 596.117 70.1139 596.117 69.4277C596.117 68.1764 596.561 67.1068 597.449 66.2188C598.337 65.3307 599.407 64.8867 600.658 64.8867ZM669.439 64.8262C670.691 64.8262 671.7 65.2702 672.467 66.1582C673.274 67.0462 673.678 68.1159 673.678 69.3672L673.98 76.5723C675.434 74.7962 677.109 73.0202 679.006 71.2441C680.943 69.4681 683.143 67.9948 685.605 66.8242C688.108 65.6133 690.893 65.0078 693.961 65.0078C699.329 65.0078 703.628 66.3802 706.857 69.125C710.127 71.8698 712.488 75.4824 713.941 79.9629C715.435 84.403 716.182 89.2064 716.182 94.373L716.121 123.738C716.121 124.99 715.677 126.059 714.789 126.947C713.901 127.835 712.831 128.279 711.58 128.279C710.329 128.279 709.259 127.835 708.371 126.947C707.483 126.019 707.039 124.929 707.039 123.678L707.1 94.373C707.1 90.7806 706.736 87.4505 706.01 84.3828C705.283 81.3151 703.971 78.8327 702.074 76.9355C700.177 75.0384 697.473 74.0898 693.961 74.0898C687.382 74.0898 682.417 75.8457 679.066 79.3574C675.716 82.8691 674.041 87.8138 674.041 94.1914V123.859C674.041 125.111 673.597 126.18 672.709 127.068C671.821 127.956 670.751 128.4 669.5 128.4C668.249 128.4 667.179 127.936 666.291 127.008C665.403 126.12 664.959 125.05 664.959 123.799L664.898 69.4277C664.898 68.1361 665.322 67.0462 666.17 66.1582C667.058 65.2702 668.148 64.8262 669.439 64.8262ZM730.773 47.5703C730.773 46.3997 731.177 45.4108 731.984 44.6035C732.832 43.7559 733.841 43.332 735.012 43.332C736.182 43.332 737.191 43.7559 738.039 44.6035C738.887 45.4108 739.29 46.4199 739.25 47.6309V94.8574C743.65 89.7715 748.211 84.847 752.934 80.084C757.656 75.2806 762.318 70.4368 766.92 65.5527C767.727 64.6647 768.757 64.2207 770.008 64.2207C771.178 64.2207 772.167 64.6445 772.975 65.4922C773.822 66.2995 774.246 67.2884 774.246 68.459C774.246 69.6296 773.842 70.6185 773.035 71.4258L752.268 92.9805L773.883 121.377C774.488 122.144 774.791 123.012 774.791 123.98C774.791 125.151 774.367 126.16 773.52 127.008C772.712 127.815 771.723 128.219 770.553 128.219C769.14 128.219 768.01 127.654 767.162 126.523L746.334 98.3691L739.25 105.271V123.799C739.25 124.969 738.826 125.979 737.979 126.826C737.171 127.633 736.182 128.037 735.012 128.037C733.841 128.037 732.832 127.613 731.984 126.766C731.137 125.918 730.733 124.909 730.773 123.738V47.5703Z" fill="#1784AD"/>
</g>
<defs>
<clipPath id="clip0_2204_910">
<rect width="812" height="171" fill="white"/>
</clipPath>
</defs>
</svg>
